<svg width="69" height="69" viewBox="0 0 69 69" fill="none" xmlns="http://www.w3.org/2000/svg">
<path d="M46 20.125C46 19.3625 46.3029 18.6312 46.8421 18.0921C47.3812 17.5529 48.1125 17.25 48.875 17.25C49.6375 17.25 50.3688 17.5529 50.9079 18.0921C51.4471 18.6312 51.75 19.3625 51.75 20.125C51.75 20.8875 51.4471 21.6188 50.9079 22.1579C50.3688 22.6971 49.6375 23 48.875 23C48.1125 23 47.3812 22.6971 46.8421 22.1579C46.3029 21.6188 46 20.8875 46 20.125Z" fill="#3A5349"/>
<path fill-rule="evenodd" clip-rule="evenodd" d="M34.5 20.8438C30.8781 20.8438 27.4046 22.2825 24.8436 24.8436C22.2825 27.4046 20.8438 30.8781 20.8438 34.5C20.8438 38.1219 22.2825 41.5954 24.8436 44.1564C27.4046 46.7175 30.8781 48.1562 34.5 48.1562C38.1219 48.1562 41.5954 46.7175 44.1564 44.1564C46.7175 41.5954 48.1562 38.1219 48.1562 34.5C48.1562 30.8781 46.7175 27.4046 44.1564 24.8436C41.5954 22.2825 38.1219 20.8438 34.5 20.8438ZM25.1562 34.5C25.1562 32.0219 26.1407 29.6453 27.893 27.893C29.6453 26.1407 32.0219 25.1562 34.5 25.1562C36.9781 25.1562 39.3547 26.1407 41.107 27.893C42.8593 29.6453 43.8437 32.0219 43.8437 34.5C43.8437 36.9781 42.8593 39.3547 41.107 41.107C39.3547 42.8593 36.9781 43.8437 34.5 43.8437C32.0219 43.8437 29.6453 42.8593 27.893 41.107C26.1407 39.3547 25.1562 36.9781 25.1562 34.5Z" fill="#3A5349"/>
<path fill-rule="evenodd" clip-rule="evenodd" d="M49.6168 8.14487C39.5698 7.03109 29.4304 7.03109 19.3833 8.14487C13.5988 8.79175 8.92697 13.3486 8.24847 19.1619C7.0565 29.3526 7.0565 39.6474 8.24847 49.8381C8.92697 55.6514 13.596 60.2083 19.3833 60.8551C29.4305 61.9678 39.5697 61.9678 49.6168 60.8551C55.4013 60.2083 60.0732 55.6514 60.7517 49.8381C61.9439 39.6475 61.9439 29.3525 60.7517 19.1619C60.0732 13.3486 55.4042 8.79175 49.6168 8.14487ZM19.8606 12.4286C29.5905 11.3501 39.4097 11.3501 49.1396 12.4286C52.9633 12.8599 56.0252 15.8758 56.4708 19.665C57.6236 29.5214 57.6236 39.4786 56.4708 49.335C56.2404 51.1895 55.3914 52.9121 54.0611 54.2247C52.7309 55.5372 50.997 56.3629 49.1396 56.5685C39.4097 57.6471 29.5905 57.6471 19.8606 56.5685C18.0032 56.3629 16.2693 55.5372 14.939 54.2247C13.6088 52.9121 12.7598 51.1895 12.5293 49.335C11.3766 39.4786 11.3766 29.5214 12.5293 19.665C12.7598 17.8105 13.6088 16.0879 14.939 14.7753C16.2693 13.4628 18.0032 12.6342 19.8606 12.4286Z" fill="#3A5349"/>
</svg>
