<svg width="52" height="52" viewBox="0 0 52 52" fill="none" xmlns="http://www.w3.org/2000/svg">
<path d="M48.4314 0H3.56863C2.62217 0 1.71447 0.37598 1.04523 1.04523C0.37598 1.71447 0 2.62217 0 3.56863V48.4314C0 49.3778 0.37598 50.2855 1.04523 50.9548C1.71447 51.624 2.62217 52 3.56863 52H48.4314C49.3778 52 50.2855 51.624 50.9548 50.9548C51.624 50.2855 52 49.3778 52 48.4314V3.56863C52 2.62217 51.624 1.71447 50.9548 1.04523C50.2855 0.37598 49.3778 0 48.4314 0ZM48.9412 48.4314C48.9412 48.5666 48.8875 48.6963 48.7919 48.7919C48.6963 48.8875 48.5666 48.9412 48.4314 48.9412H3.56863C3.43342 48.9412 3.30375 48.8875 3.20814 48.7919C3.11253 48.6963 3.05882 48.5666 3.05882 48.4314V3.56863C3.05882 3.43342 3.11253 3.30375 3.20814 3.20814C3.30375 3.11253 3.43342 3.05882 3.56863 3.05882H48.4314C48.5666 3.05882 48.6963 3.11253 48.7919 3.20814C48.8875 3.30375 48.9412 3.43342 48.9412 3.56863V48.4314ZM17.3333 21.9216V38.2353C17.3333 38.6409 17.1722 39.0299 16.8854 39.3168C16.5986 39.6036 16.2095 39.7647 15.8039 39.7647C15.3983 39.7647 15.0093 39.6036 14.7225 39.3168C14.4356 39.0299 14.2745 38.6409 14.2745 38.2353V21.9216C14.2745 21.5159 14.4356 21.1269 14.7225 20.8401C15.0093 20.5533 15.3983 20.3922 15.8039 20.3922C16.2095 20.3922 16.5986 20.5533 16.8854 20.8401C17.1722 21.1269 17.3333 21.5159 17.3333 21.9216ZM39.7647 29.0588V38.2353C39.7647 38.6409 39.6036 39.0299 39.3168 39.3168C39.0299 39.6036 38.6409 39.7647 38.2353 39.7647C37.8297 39.7647 37.4407 39.6036 37.1538 39.3168C36.867 39.0299 36.7059 38.6409 36.7059 38.2353V29.0588C36.7059 27.5715 36.1151 26.1452 35.0634 25.0935C34.0117 24.0418 32.5853 23.451 31.098 23.451C29.6107 23.451 28.1844 24.0418 27.1327 25.0935C26.081 26.1452 25.4902 27.5715 25.4902 29.0588V38.2353C25.4902 38.6409 25.3291 39.0299 25.0422 39.3168C24.7554 39.6036 24.3664 39.7647 23.9608 39.7647C23.5552 39.7647 23.1661 39.6036 22.8793 39.3168C22.5925 39.0299 22.4314 38.6409 22.4314 38.2353V21.9216C22.4314 21.5159 22.5925 21.1269 22.8793 20.8401C23.1661 20.5533 23.5552 20.3922 23.9608 20.3922C24.3664 20.3922 24.7554 20.5533 25.0422 20.8401C25.3291 21.1269 25.4902 21.5159 25.4902 21.9216V22.4594C26.7506 21.3897 28.2907 20.7028 29.9287 20.4798C31.5668 20.2568 33.2344 20.5069 34.735 21.2006C36.2355 21.8943 37.5063 23.0028 38.3975 24.3951C39.2887 25.7875 39.7631 27.4057 39.7647 29.0588ZM18.3529 14.7843C18.3529 15.2885 18.2034 15.7813 17.9234 16.2005C17.6433 16.6197 17.2452 16.9464 16.7794 17.1393C16.3136 17.3322 15.8011 17.3827 15.3066 17.2844C14.8122 17.186 14.358 16.9432 14.0015 16.5867C13.645 16.2303 13.4022 15.7761 13.3039 15.2816C13.2055 14.7871 13.256 14.2746 13.4489 13.8088C13.6419 13.3431 13.9686 12.945 14.3878 12.6649C14.8069 12.3848 15.2998 12.2353 15.8039 12.2353C16.48 12.2353 17.1283 12.5039 17.6064 12.9819C18.0844 13.4599 18.3529 14.1083 18.3529 14.7843Z" fill="#3A5349"/>
</svg>
