<svg width="52" height="53" viewBox="0 0 52 53" fill="none" xmlns="http://www.w3.org/2000/svg">
<path d="M3.79167 6.625H48.2083C50.3013 6.625 52 8.35633 52 10.4896V41.4062C52 42.4312 51.6005 43.4142 50.8894 44.1389C50.1784 44.8637 49.2139 45.2708 48.2083 45.2708H3.79167C2.78605 45.2708 1.82163 44.8637 1.11055 44.1389C0.399478 43.4142 0 42.4312 0 41.4062L0 10.4896C0 8.35633 1.69867 6.625 3.79167 6.625ZM3.25 16.3682V41.4062C3.25 41.711 3.49267 41.9583 3.79167 41.9583H48.2083C48.352 41.9583 48.4898 41.9002 48.5914 41.7966C48.6929 41.6931 48.75 41.5527 48.75 41.4062V16.3682L28.1233 30.5744C26.8407 31.4577 25.1593 31.4577 23.8767 30.5744L3.25 16.3682ZM3.25 10.4896V12.3711L25.6967 27.8294C25.7862 27.8911 25.8919 27.9241 26 27.9241C26.1081 27.9241 26.2138 27.8911 26.3033 27.8294L48.75 12.3711V10.4896C48.75 10.3432 48.6929 10.2027 48.5914 10.0992C48.4898 9.99567 48.352 9.9375 48.2083 9.9375H3.79167C3.64801 9.9375 3.51023 9.99567 3.40865 10.0992C3.30707 10.2027 3.25 10.3432 3.25 10.4896Z" fill="#3A5349"/>
</svg>
